<svg display= "none" xmlns="http://www.w3.org/2000/svg>

	<symbol id="logo" viewBox="0 0 243 33" fill="none" xmlns="http://www.w3.org/2000/svg">
	<path d="M48.0125 27.6361L56.079 5.61787H60.9351L69.0078 27.6361H65.1701L63.2016 22.1967H53.6882L51.7508 27.6361H48.0125ZM54.7377 19.1256H62.1211L58.5132 9.10687H58.3518L54.7377 19.1256Z" fill="#142251"/>
	<path d="M74.7208 27.6361V5.62393H82.1042C84.0044 5.62393 85.5631 5.71478 86.7802 5.8965C87.9911 6.07822 88.9474 6.40531 89.6491 6.87173C90.3508 7.34419 90.8601 7.99232 91.1768 8.82217C91.4935 9.65202 91.6984 10.712 91.7853 11.9901C91.8722 13.2682 91.9157 14.8189 91.9157 16.63C91.9157 18.4411 91.8722 19.9918 91.7853 21.2699C91.6984 22.548 91.4935 23.608 91.1768 24.4379C90.8601 25.2677 90.3508 25.9219 89.6491 26.3883C88.9474 26.8547 87.9911 27.1818 86.7802 27.3635C85.5693 27.5452 84.0107 27.6361 82.1042 27.6361H74.7208ZM78.428 24.5651H81.7751C82.9985 24.5651 84.0107 24.5408 84.8117 24.4863C85.6066 24.4318 86.24 24.2864 86.6995 24.0381C87.159 23.7897 87.5006 23.3899 87.7179 22.8387C87.9352 22.2815 88.0719 21.5001 88.1277 20.4885C88.1836 19.4769 88.2085 18.1928 88.2085 16.63C88.2085 15.0733 88.1836 13.7952 88.1277 12.7897C88.0719 11.7902 87.929 11.0028 87.6993 10.4395C87.4695 9.87614 87.1218 9.47031 86.6498 9.22196C86.1779 8.97361 85.5507 8.82823 84.762 8.77371C83.9734 8.7192 82.9798 8.69497 81.7751 8.69497H78.428V24.5651Z" fill="#142251"/>
	<path d="M99.1874 27.6361V5.62393H109.719C111.141 5.62393 112.29 5.78141 113.166 6.10245C114.041 6.42348 114.693 6.88384 115.134 7.49563C115.569 8.10135 115.867 8.82823 116.022 9.67019C116.177 10.5122 116.252 11.4329 116.252 12.4384C116.252 13.1652 116.184 13.9588 116.041 14.8249C115.898 15.6911 115.594 16.4786 115.122 17.1933C114.65 17.9081 113.911 18.423 112.905 18.744L116.612 27.6422H112.675L109.067 18.6471L110.017 19.1256C109.862 19.1922 109.682 19.2286 109.477 19.2346C109.266 19.2468 109.024 19.2528 108.738 19.2528H102.901V27.6361H99.1874ZM102.895 16.1818H108.142C109.167 16.1818 109.98 16.1151 110.57 15.9758C111.16 15.8365 111.595 15.6184 111.88 15.3216C112.166 15.0248 112.346 14.6372 112.42 14.1708C112.495 13.7043 112.538 13.1228 112.538 12.4444C112.538 11.7418 112.501 11.1482 112.42 10.6696C112.346 10.1911 112.172 9.80345 111.911 9.51876C111.65 9.23407 111.228 9.02206 110.651 8.89486C110.073 8.76766 109.278 8.70103 108.272 8.70103H102.895V16.1818Z" fill="#142251"/>
	<path d="M121.139 27.6361L129.206 5.61787H134.062L142.134 27.6361H138.297L136.328 22.1967H126.815L124.877 27.6361H121.139ZM127.864 19.1256H135.248L131.64 9.10687H131.478L127.864 19.1256Z" fill="#142251"/>
	<path d="M155.026 27.8905C154.219 27.8905 153.324 27.8723 152.356 27.8239C151.381 27.7815 150.431 27.7209 149.499 27.6482C148.568 27.5755 147.723 27.4907 146.959 27.4059V24.4318C147.748 24.4984 148.574 24.559 149.437 24.6256C150.3 24.6923 151.126 24.7407 151.915 24.771C152.703 24.8013 153.38 24.8195 153.952 24.8195C155.113 24.8195 156.019 24.7649 156.671 24.662C157.33 24.5529 157.851 24.3833 158.249 24.1471C158.51 23.9775 158.702 23.7655 158.82 23.505C158.938 23.2506 159.019 22.9478 159.05 22.5904C159.081 22.2391 159.099 21.8514 159.099 21.4213C159.099 20.8459 159.075 20.3674 159.031 19.9797C158.988 19.5981 158.888 19.2952 158.733 19.0832C158.578 18.8712 158.342 18.7137 158.013 18.6168C157.684 18.5199 157.261 18.4411 156.734 18.3745L151.356 17.7627C150.306 17.6355 149.449 17.4175 148.779 17.1085C148.114 16.7996 147.599 16.3877 147.239 15.8789C146.879 15.3701 146.63 14.7583 146.5 14.0557C146.369 13.353 146.301 12.5716 146.301 11.7176C146.301 10.288 146.5 9.15533 146.891 8.32548C147.282 7.49563 147.847 6.85962 148.58 6.42349C149.313 5.98737 150.182 5.69661 151.188 5.5573C152.194 5.41798 153.312 5.35135 154.535 5.35135C155.386 5.35135 156.262 5.37557 157.162 5.43009C158.056 5.4846 158.907 5.54518 159.702 5.62393C160.503 5.69661 161.161 5.79959 161.689 5.92679V8.84034C161.143 8.75554 160.503 8.6768 159.77 8.61623C159.037 8.5496 158.28 8.50114 157.491 8.47085C156.702 8.44056 155.97 8.42239 155.293 8.42239C154.156 8.42239 153.244 8.47085 152.554 8.56777C151.865 8.66468 151.337 8.81612 150.965 9.03418C150.524 9.27042 150.263 9.59145 150.176 10.0094C150.089 10.4274 150.046 10.9422 150.046 11.5601C150.046 12.2869 150.095 12.8442 150.195 13.2379C150.294 13.6317 150.524 13.9042 150.884 14.0557C151.244 14.2071 151.797 14.3222 152.542 14.407L157.926 15.0188C158.603 15.0854 159.217 15.1823 159.764 15.3216C160.31 15.461 160.795 15.6911 161.223 16.0122C161.652 16.3332 161.981 16.7936 162.223 17.3872C162.378 17.684 162.49 18.0292 162.571 18.4109C162.645 18.7925 162.714 19.2165 162.769 19.6768C162.825 20.1372 162.85 20.6521 162.85 21.2275C162.85 22.445 162.726 23.4566 162.471 24.2683C162.217 25.0799 161.869 25.722 161.422 26.2066C160.975 26.6851 160.422 27.0485 159.764 27.2969C159.106 27.5452 158.385 27.7027 157.597 27.7754C156.796 27.8542 155.945 27.8905 155.026 27.8905Z" fill="#142251"/>
	<path d="M174.444 27.6361V8.78583H167.588V5.61787H184.976V8.78583H178.151V27.6361H174.444Z" fill="#142251"/>
	<path d="M190.782 5.62393H205.81V8.69497H194.495V15.0006H204.27V18.0717H194.495V24.5711H205.81V27.6422H190.782V5.62393Z" fill="#142251"/>
	<path d="M212.628 5.62393H216.335V27.6422H212.628V5.62393Z" fill="#142251"/>
	<path d="M222.011 27.6361L230.077 5.61787H234.934L243 27.6361H239.162L237.194 22.1967H227.687L225.749 27.6361H222.011ZM228.736 19.1256H236.12L232.512 9.10687H232.35L228.736 19.1256Z" fill="#142251"/>
	<path d="M37.7368 32.7866H31.889C31.4597 32.7866 31.1118 32.4522 31.1118 32.0395C31.1118 31.6268 31.4597 31.2924 31.889 31.2924H36.4118L32.7292 24.953L28.5654 32.3917C28.4285 32.6336 28.1657 32.7866 27.8807 32.7866H23.9723C23.6984 32.7866 23.443 32.6478 23.3024 32.4201C23.1617 32.1925 23.158 31.9114 23.2876 31.6802L29.9163 20.0331L29.091 18.5247L24.7236 25.9313C24.5127 26.2906 24.0352 26.4187 23.6651 26.2124C23.2913 26.0096 23.1617 25.5543 23.3727 25.195L28.4433 16.5966C28.5802 16.3618 28.8393 16.2159 29.1206 16.2159C29.1243 16.2159 29.128 16.2159 29.1317 16.2159C29.4167 16.2195 29.6757 16.3725 29.809 16.6144L31.4893 19.6916C31.6114 19.9121 31.6077 20.1789 31.4819 20.3959L25.2825 31.2889H27.4143L32.0297 23.0427C32.1629 22.8008 32.4257 22.6514 32.707 22.6478C32.7107 22.6478 32.7107 22.6478 32.7144 22.6478C32.9957 22.6478 33.2547 22.7937 33.3917 23.032L38.4141 31.6731C38.5474 31.9043 38.5474 32.1853 38.4067 32.4166C38.2661 32.6478 38.0107 32.7866 37.7368 32.7866Z" fill="#142251"/>
	<path d="M20.1046 33H16.9438C16.6699 33 16.4146 32.8613 16.2739 32.6336C16.1333 32.4059 16.1296 32.1249 16.2628 31.8936L26.5002 14.0815L25.6415 12.4379L22.9989 16.9061C22.7879 17.2654 22.3142 17.3899 21.9404 17.1871C21.5665 16.9843 21.437 16.529 21.648 16.1697L25.0086 10.4849C25.1492 10.2465 25.4083 10.1113 25.7044 10.1078C25.9894 10.1149 26.2485 10.2714 26.378 10.5205L28.0731 13.7648C28.1879 13.9854 28.1842 14.2451 28.0583 14.4621L18.2577 31.5094H19.6494L21.4814 28.4002C21.6924 28.0409 22.1698 27.9128 22.5399 28.1192C22.9138 28.322 23.0433 28.7773 22.8323 29.1366L20.7745 32.6265C20.645 32.8577 20.3859 33 20.1046 33Z" fill="#142251"/>
	<path d="M13.1576 32.7866H9.26027C8.98268 32.7866 8.7273 32.6443 8.59036 32.4166C8.44972 32.1889 8.44972 31.9043 8.58296 31.6731L12.7615 24.5475C12.9725 24.1882 13.4463 24.0601 13.8201 24.2629C14.1939 24.4657 14.3271 24.921 14.1162 25.2803L10.5927 31.2889H12.7097L20.1453 18.7168C20.3563 18.3575 20.83 18.233 21.2038 18.4358C21.5777 18.6386 21.7072 19.0939 21.4962 19.4532L13.8386 32.4059C13.6942 32.6443 13.4351 32.7866 13.1576 32.7866Z" fill="#142251"/>
	<path d="M14.9785 23.0285C14.849 23.0285 14.7194 22.9964 14.5973 22.9324C14.2235 22.7296 14.0903 22.2743 14.3012 21.915L22.7028 7.58555L21.9182 6.16257L17.5434 13.3166C17.325 13.6724 16.8476 13.7898 16.4775 13.5834C16.1074 13.3735 15.9852 12.9146 16.1999 12.5624L21.2816 4.25578C21.4259 4.02099 21.6924 3.88225 21.97 3.8858C22.2513 3.89292 22.5066 4.04233 22.6399 4.28068L24.2758 7.24404C24.4016 7.46816 24.3979 7.73852 24.2647 7.96264L15.6558 22.6478C15.5152 22.8897 15.2524 23.0285 14.9785 23.0285Z" fill="#142251"/>
	<path d="M5.19272 32.7866H0.777258C0.499673 32.7866 0.240593 32.6443 0.103651 32.413C-0.0369921 32.1818 -0.033293 31.8972 0.10735 31.666L5.53692 22.6941C5.75159 22.3383 6.22903 22.2174 6.59915 22.4237C6.96926 22.63 7.0951 23.0889 6.88043 23.4447L2.12817 31.2924H4.74858L14.3086 15.6966C14.527 15.3408 15.0044 15.2234 15.3745 15.4333C15.7447 15.6432 15.8668 16.1021 15.6484 16.4578L5.86262 32.4237C5.72198 32.6478 5.4703 32.7866 5.19272 32.7866Z" fill="#142251"/>
	<path d="M9.84134 17.8132C9.7081 17.8132 9.57486 17.7812 9.45272 17.7101C9.08261 17.5037 8.95677 17.0448 9.17144 16.6891L14.675 7.59622C14.8897 7.24048 15.3671 7.11953 15.7373 7.32586C16.1074 7.53219 16.2332 7.9911 16.0185 8.34685L10.5149 17.4397C10.3669 17.6816 10.1078 17.8132 9.84134 17.8132Z" fill="#142251"/>
	<path d="M17.0178 5.95624C16.8846 5.95624 16.7514 5.92422 16.6292 5.85307C16.2591 5.64674 16.1333 5.18782 16.3479 4.83208L19.0498 0.371034C19.2644 0.0152887 19.7419 -0.105663 20.112 0.10067C20.4821 0.307002 20.608 0.765912 20.3933 1.12166L17.6915 5.5827C17.5471 5.82461 17.2843 5.95624 17.0178 5.95624Z" fill="#142251"/>
	</symbol>

	<symbol id="plus" viewBox="0 0 34 34" xmlns="http://www.w3.org/2000/svg">
		<path fill-rule="evenodd" clip-rule="evenodd" d="M17 34C26.3888 34 34 26.3888 34 17C34 7.61116 26.3888 0 17 0C7.61116 0 0 7.61116 0 17C0 26.3888 7.61116 34 17 34ZM18 16V9H16V16H9V18H16V25H18V18H25V16H18Z"/>
	</symbol>

	
	<symbol id="whatsapp" viewBox="0 0 24 26" xmlns="http://www.w3.org/2000/svg">
	<path fill-rule="evenodd" clip-rule="evenodd" d="M12.0453 24.8506H12.0502C18.6388 24.8479 23.9974 19.488 24 12.9009C24.0013 9.70795 22.7594 6.70565 20.5033 4.447C18.2472 2.18823 15.2468 0.943762 12.0501 0.942383C5.4635 0.942383 0.102809 6.30279 0.100188 12.8914C0.099291 14.9976 0.649554 17.0533 1.69529 18.8655L0 25.0578L6.33478 23.3961C8.08018 24.3481 10.0453 24.8499 12.0453 24.8506ZM17.6619 15.4735C17.8701 15.5741 18.0107 15.6421 18.0708 15.7423C18.1454 15.8668 18.1454 16.4647 17.8967 17.1622C17.6478 17.8597 16.4549 18.4962 15.8812 18.5819C15.3668 18.6589 14.7159 18.6909 14.0006 18.4636C13.5669 18.326 13.0108 18.1423 12.2984 17.8347C9.49924 16.626 7.60757 13.913 7.25005 13.4002C7.22501 13.3643 7.20749 13.3392 7.19772 13.3261L7.19531 13.3229C7.0373 13.1121 5.97852 11.6994 5.97852 10.2374C5.97852 8.862 6.65412 8.14111 6.9651 7.80928C6.9864 7.78654 7.00599 7.76563 7.02354 7.74647C7.29723 7.44754 7.62073 7.3728 7.81977 7.3728C8.0188 7.3728 8.21807 7.37464 8.39204 7.38338C8.4135 7.38446 8.43583 7.38433 8.45891 7.38419C8.63291 7.38317 8.84984 7.3819 9.06384 7.89593C9.14616 8.09375 9.26662 8.38701 9.39367 8.69631C9.6506 9.32183 9.93448 10.013 9.98443 10.113C10.0591 10.2624 10.1088 10.4367 10.0093 10.6361C9.99438 10.666 9.98056 10.6942 9.96736 10.7212C9.89261 10.8738 9.83762 10.986 9.71075 11.1342C9.66086 11.1924 9.60929 11.2552 9.55773 11.318C9.45501 11.4431 9.3523 11.5682 9.26286 11.6573C9.11338 11.8062 8.95777 11.9677 9.13195 12.2666C9.30612 12.5656 9.90536 13.5433 10.793 14.3351C11.7472 15.1862 12.5765 15.5459 12.9968 15.7282C13.0789 15.7638 13.1454 15.7927 13.1942 15.8171C13.4927 15.9666 13.6668 15.9416 13.841 15.7423C14.0152 15.5431 14.5874 14.8704 14.7865 14.5716C14.9855 14.2728 15.1846 14.3225 15.4582 14.4221C15.732 14.5219 17.2 15.2441 17.4986 15.3936C17.5568 15.4227 17.6113 15.4491 17.6619 15.4735Z" fill="#213887"/>
	</symbol>

	
	<symbol id="arrow-down" viewBox="0 0 54 54" xmlns="http://www.w3.org/2000/svg">
	<!--<circle cx="27" cy="27" r="27" fill="#F2F3F8"/>-->
	<path d="M27 19C27.5523 19 28 19.4477 28 20V31.5858L32.2929 27.2929C32.6834 26.9024 33.3166 26.9024 33.7071 27.2929C34.0976 27.6834 34.0976 28.3166 33.7071 28.7071L27.7071 34.7071C27.3166 35.0976 26.6834 35.0976 26.2929 34.7071L20.2929 28.7071C19.9024 28.3166 19.9024 27.6834 20.2929 27.2929C20.6834 26.9024 21.3166 26.9024 21.7071 27.2929L26 31.5858V20C26 19.4477 26.4477 19 27 19Z" />
	</symbol>


	<symbol id="telegram" viewBox="0 0 18 18" xmlns="http://www.w3.org/2000/svg">
	<path d="M9 18C13.9706 18 18 13.9706 18 9C18 4.02944 13.9706 0 9 0C4.02944 0 0 4.02944 0 9C0 13.9706 4.02944 18 9 18Z" fill="#213887"/>
	<path fill-rule="evenodd" clip-rule="evenodd" d="M4.07401 8.90521C6.69769 7.76211 8.44723 7.00851 9.32261 6.64441C11.822 5.60483 12.3414 5.42424 12.6799 5.41828C12.7543 5.41696 12.9208 5.43542 13.0286 5.52291C13.1197 5.59679 13.1447 5.6966 13.1567 5.76664C13.1687 5.83669 13.1836 5.99626 13.1718 6.12094C13.0363 7.54405 12.4503 10.9976 12.1521 12.5915C12.0259 13.2659 11.7775 13.4921 11.537 13.5142C11.0144 13.5623 10.6175 13.1688 10.1113 12.837C9.31918 12.3177 8.87169 11.9945 8.1028 11.4878C7.21422 10.9022 7.79025 10.5804 8.29665 10.0544C8.42918 9.91679 10.732 7.82223 10.7765 7.63222C10.7821 7.60845 10.7873 7.51987 10.7347 7.4731C10.682 7.42632 10.6044 7.44232 10.5483 7.45504C10.4689 7.47307 9.20346 8.30946 6.75207 9.96422C6.39289 10.2109 6.06755 10.331 5.77606 10.3247C5.45471 10.3178 4.83657 10.143 4.37704 9.99367C3.81342 9.81046 3.36546 9.71359 3.40447 9.40244C3.42478 9.24037 3.64797 9.07463 4.07401 8.90521Z" fill="white"/>
	</symbol>


<symbol id="prev" width="36" height="36" viewBox="0 0 36 36" fill="none" xmlns="http://www.w3.org/2000/svg">
<g opacity="1">
<path d="M17.5607 7.9391C18.1464 8.52488 18.1464 9.47463 17.5607 10.0604L11.1213 16.4998H28.5C29.3284 16.4998 30 17.1713 30 17.9998C30 18.8282 29.3284 19.4998 28.5 19.4998H11.1213L17.5607 25.9391C18.1464 26.5249 18.1464 27.4746 17.5607 28.0604C16.9749 28.6462 16.0251 28.6462 15.4393 28.0604L6.43934 19.0604C6.15804 18.7791 6 18.3976 6 17.9998C6 17.6019 6.15804 17.2204 6.43934 16.9391L15.4393 7.9391C16.0251 7.35331 16.9749 7.35331 17.5607 7.9391Z" fill="#142251"/>
</g>
</symbol>

<symbol id="next" width="36" height="36" viewBox="0 0 36 36" fill="none" xmlns="http://www.w3.org/2000/svg">
<path d="M18.4393 7.9391C19.0251 7.35331 19.9749 7.35331 20.5607 7.9391L29.5607 16.9391C29.842 17.2204 30 17.6019 30 17.9998C30 18.3976 29.842 18.7791 29.5607 19.0604L20.5607 28.0604C19.9749 28.6462 19.0251 28.6462 18.4393 28.0604C17.8536 27.4746 17.8536 26.5249 18.4393 25.9391L24.8787 19.4998L7.5 19.4998C6.67157 19.4998 6 18.8282 6 17.9998C6 17.1713 6.67157 16.4998 7.5 16.4998H24.8787L18.4393 10.0604C17.8536 9.47463 17.8536 8.52488 18.4393 7.9391Z" fill="#142251"/>
</symbol>


	<symbol id="" viewBox="0 0 34 34" xmlns="http://www.w3.org/2000/svg">

	</symbol>







</svg>